<svg id="LOGO" xmlns="http://www.w3.org/2000/svg" viewBox="0 0 1080 1080"><defs><style>.cls-1,.cls-3{fill:#223c27;}.cls-2{fill:#5ba542;}.cls-3{font-size:55.86px;font-family:Grounded;}</style></defs><title>Logo Variations</title><path class="cls-1" d="M708.6,665.8a656,656,0,0,0-317.9,29.1c-23.4,8.6-41-7.8-40-38.5h0c1-30.7,20.3-59.8,43.3-63.2a608.2,608.2,0,0,1,295.1,23.7c21.4,7.7,44.3,24.7,51.6,36.1h0C748.1,664.5,733.7,669.3,708.6,665.8Z"/><path class="cls-2" d="M648.7,540.2A518.9,518.9,0,0,0,446,559.8c-23.2,7.7-42.7-9.6-44.5-40.7h0c-1.7-31.1,17.2-58.8,42.1-59.5a519.7,519.7,0,0,1,200.3,28.8c23.1,8.7,43.5,26.3,46.2,37.3h0C692.9,536.7,674.2,542.1,648.7,540.2Z"/><path class="cls-1" d="M558.4,430.3c-17.1-.2-33.9,0-50.7.6-23,2-42.9-24.1-40.6-55.6h0c2.5-31.8,33.8-45.7,63-32.8,20.4,8.3,39.7,17.3,58.1,26.8,25.9,14.8,38.8,31.1,30.4,40h0C609.9,418.1,582.2,429.3,558.4,430.3Z"/><circle class="cls-1" cx="186.9" cy="540" r="17.9"/><text class="cls-3" transform="translate(217.3 459.9) rotate(-72.8)">R</text><text class="cls-3" transform="translate(232.3 413.7) rotate(-63.8)">O</text><text class="cls-3" transform="matrix(0.58, -0.81, 0.81, 0.58, 257.55, 364.47)">C</text><text class="cls-3" transform="matrix(0.7, -0.72, 0.72, 0.7, 285.98, 325.33)">A</text><text class="cls-3" transform="matrix(0.8, -0.6, 0.6, 0.8, 325.74, 285.91)">P</text><text class="cls-3" transform="translate(366.3 257.2) rotate(-30.9)">I</text><text class="cls-3" transform="translate(383.1 246.9) rotate(-24.8)">N</text><text class="cls-3" transform="matrix(0.96, -0.28, 0.28, 0.96, 428.68, 226.8)">E</text><text class="cls-3" transform="matrix(0.98, -0.18, 0.18, 0.98, 474.38, 214.62)"> </text><text class="cls-3" transform="matrix(0.99, -0.11, 0.11, 0.99, 498.18, 210.74)"> </text><text class="cls-3" transform="translate(522.2 208.6) rotate(-2)"> </text><text class="cls-3" transform="translate(546.3 208.2) rotate(2.1)"> </text><text class="cls-3" transform="translate(570.4 209.5) rotate(6.3)"> </text><text class="cls-3" transform="translate(594.3 212.5) rotate(10.4)"> </text><text class="cls-3" transform="translate(617.7 216.8) rotate(16.8)">R</text><text class="cls-3" transform="translate(664 231.3) rotate(25.8)">O</text><text class="cls-3" transform="translate(713.4 256.3) rotate(35.2)">C</text><text class="cls-3" transform="matrix(0.72, 0.69, -0.69, 0.72, 752.76, 284.38)">A</text><text class="cls-3" transform="matrix(0.61, 0.8, -0.8, 0.61, 792.49, 323.86)">P</text><text class="cls-3" transform="matrix(0.52, 0.85, -0.85, 0.52, 821.5, 364.2)">I</text><text class="cls-3" transform="translate(831.9 380.9) rotate(64.7)">N</text><text class="cls-3" transform="translate(852.4 426.4) rotate(73.1)">E</text><text class="cls-3" transform="translate(182.2 640.2) rotate(71.4)">R</text><text class="cls-3" transform="matrix(0.46, 0.89, -0.89, 0.46, 200.18, 690.78)">O</text><text class="cls-3" transform="translate(229.4 744) rotate(53.3)">C</text><text class="cls-3" transform="matrix(0.71, 0.71, -0.71, 0.71, 261.66, 786.32)">A</text><text class="cls-3" transform="translate(305.9 828.5) rotate(36.1)">P</text><text class="cls-3" transform="translate(349.7 858.6) rotate(30.3)">I</text><text class="cls-3" transform="translate(369.6 870.2) rotate(24.3)">N</text><text class="cls-3" transform="translate(420 891.6) rotate(16)">E</text><text class="cls-3" transform="matrix(0.98, 0.17, -0.17, 0.98, 469.19, 904.31)"> </text><text class="cls-3" transform="matrix(0.99, 0.1, -0.1, 0.99, 495.34, 908.39)"> </text><text class="cls-3" transform="translate(521.7 910.6) rotate(1.8)"> </text><text class="cls-3" transform="translate(548.2 911) rotate(-2.2)"> </text><text class="cls-3" transform="translate(574.6 909.5) rotate(-6.2)"> </text><text class="cls-3" transform="translate(600.8 906.1) rotate(-10.3)"> </text><text class="cls-3" transform="translate(627.8 901.1) rotate(-16.6)">R</text><text class="cls-3" transform="translate(679 884.8) rotate(-25.4)">O</text><text class="cls-3" transform="translate(733.2 857.5) rotate(-34.7)">C</text><text class="cls-3" transform="matrix(0.73, -0.68, 0.68, 0.73, 776.58, 826.68)">A</text><text class="cls-3" transform="matrix(0.62, -0.79, 0.79, 0.62, 820.23, 783.89)">P</text><text class="cls-3" transform="matrix(0.53, -0.85, 0.85, 0.53, 851.79, 741.19)">I</text><text class="cls-3" transform="translate(864.1 721.7) rotate(-63.7)">N</text><text class="cls-3" transform="matrix(0.31, -0.95, 0.95, 0.31, 887.26, 672.12)">E</text><circle class="cls-1" cx="893.1" cy="540" r="17.9"/><circle class="cls-1" cx="540" cy="893.1" r="17.9"/><circle class="cls-1" cx="540" cy="186.9" r="17.9"/></svg>