<svg id="LOGO" xmlns="http://www.w3.org/2000/svg" viewBox="350 320 400 400">
    <defs>
        <style>.cls-1{fill:#223c27;}.cls-2{fill:#5ba542;}</style>
    </defs>
    <title>Logo Variations</title>
    <path class="cls-1"
        d="M708.6,665.8a656,656,0,0,0-317.9,29.1c-23.4,8.6-41-7.8-40-38.5h0c1-30.7,20.3-59.8,43.3-63.2a608.2,608.2,0,0,1,295.1,23.7c21.4,7.7,44.3,24.7,51.6,36.1h0C748.1,664.5,733.7,669.3,708.6,665.8Z" />
    <path class="cls-2"
        d="M648.7,540.2A518.9,518.9,0,0,0,446,559.8c-23.2,7.7-42.7-9.6-44.5-40.7h0c-1.7-31.1,17.2-58.8,42.1-59.5a519.7,519.7,0,0,1,200.3,28.8c23.1,8.7,43.5,26.3,46.2,37.3h0C692.9,536.7,674.2,542.1,648.7,540.2Z" />
    <path class="cls-1"
        d="M558.4,430.3c-17.1-.2-33.9,0-50.7.6-23,2-42.9-24.1-40.6-55.6h0c2.5-31.8,33.8-45.7,63-32.8,20.4,8.3,39.7,17.3,58.1,26.8,25.9,14.8,38.8,31.1,30.4,40h0C609.9,418.1,582.2,429.3,558.4,430.3Z" />
</svg>