<svg width="65" height="48" viewBox="0 0 65 48" fill="none" xmlns="http://www.w3.org/2000/svg">
    <path
        d="M9.36107 29.3336C12.3659 27.1234 15.9748 25.9636 19.692 25.6526C23.4482 25.3383 28.3742 25 32.1725 25C36.0609 25 41.1313 25.3546 44.9185 25.6749C48.4652 25.9749 51.9085 27.0492 54.8311 29.0807C58.7292 31.7902 63.8769 35.9755 64.9067 39.7717C67.9091 50.8396 -2.59331 50.6455 0.0738289 39.7717C0.969154 36.1215 5.65665 32.0584 9.36107 29.3336Z"
        fill="#54C996" />
    <path
        d="M17.4333 13.9438C20.2479 11.5275 23.9083 10.4348 27.6096 10.1883C29.2081 10.0819 30.8983 10 32.3136 10C33.8067 10 35.606 10.0912 37.2807 10.2061C40.8117 10.4485 44.2939 11.4683 47.0615 13.6744C48.8143 15.0717 50.5155 16.77 50.9469 18.3492C52.656 24.605 12.5238 24.4953 14.042 18.3492C14.405 16.88 15.8626 15.2923 17.4333 13.9438Z"
        fill="#7DEA96" />
    <path
        d="M23.612 2.95011C25.2588 0.733258 28.273 0.148631 31.0317 0.0222523C31.3389 0.00818128 31.636 3.05393e-09 31.9118 0C32.2825 -4.10629e-09 32.692 0.0147911 33.1124 0.0388029C35.6598 0.184285 38.3523 0.729639 40.0809 2.60643C40.6144 3.18566 41 3.84643 41 4.54642C41 9.15119 23 9.15119 23 4.54642C23 3.98434 23.245 3.44406 23.612 2.95011Z"
        fill="#BBEDC0" />
</svg>
    