<svg xmlns="http://www.w3.org/2000/svg" width="16" height="17" viewBox="0 0 16 17" fill="none">
    <path
        d="M13.72 7.79339L9.05336 3.12672C8.7997 2.87425 8.43062 2.77629 8.08515 2.86973C7.73968 2.96317 7.4703 3.23382 7.37848 3.57973C7.28667 3.92564 7.38637 4.29425 7.64003 4.54672L10.5934 7.49339H2.98669C2.43441 7.49339 1.98669 7.9411 1.98669 8.49339C1.98669 9.04567 2.43441 9.49339 2.98669 9.49339H10.5934L7.64003 12.4401C7.3544 12.726 7.26902 13.1558 7.42365 13.5293C7.57827 13.9027 7.94251 14.1464 8.34669 14.1467C8.61506 14.1427 8.87023 14.0296 9.05336 13.8334L13.72 9.16672C14.11 8.7763 14.11 8.14381 13.72 7.75339V7.79339Z"
        fill="#2C4138" />
</svg>